ffmpeg started on 2025-04-16 at 09:40:13
Report written to "D:\Convert\FFMetrics\reports\psnr_report-3.txt"
Log level: 32
Command line:
ffmpeg -hide_banner -nostdin -r 24000/1001 -i "G:\\\xc0\xed\xe8\xec\xe5\\\xce\xed\xe3\xee\xe8\xed\xe3\xe8\\!_37_\xc7\xe8\xec\xe0_2025\\JamClub\\\xcf\xee\xe4\xed\xff\xf2\xe8\xe5 \xf3\xf0\xee\xe2\xed\xff \xe2 \xee\xe4\xe8\xed\xee\xf7\xea\xf3\\\xd2\xc2-2\\JamClub_Ore_dake_Level_Up_na_Ken_Season_2_01_1080p_HEVC.mkv" -i "G:\\\xc0\xed\xe8\xec\xe5\\\xce\xed\xe3\xee\xe8\xed\xe3\xe8\\!_37_\xc7\xe8\xec\xe0_2025\\JamClub\\\xcf\xee\xe4\xed\xff\xf2\xe8\xe5 \xf3\xf0\xee\xe2\xed\xff \xe2 \xee\xe4\xe8\xed\xee\xf7\xea\xf3\\\xd2\xc2-2\\JamClub_Ore_dake_Level_Up_na_Ken_Season_2_01_1080p.mp4" -lavfi "[0:v]settb=AVTB,setpts=PTS-STARTPTS[main];[1:v]settb=AVTB,setpts=PTS-STARTPTS[ref];[main][ref]psnr=eof_action=endall:stats_file='D\\:/Convert/FFMetrics/logs/psnr_logfile-3.txt'" -f null -
Input #0, matroska,webm, from 'G:\Аниме\Онгоинги\!_37_Зима_2025\JamClub\Поднятие уровня в одиночку\ТВ-2\JamClub_Ore_dake_Level_Up_na_Ken_Season_2_01_1080p_HEVC.mkv':
  Metadata:
    COMPATIBLE_BRANDS: isomiso2avc1mp41
    MAJOR_BRAND     : isom
    MINOR_VERSION   : 512
    ENCODER         : Lavf61.7.100
  Duration: 00:24:02.26, start: -0.001000, bitrate: 1499 kb/s
  Stream #0:0: Video: hevc (Main 10), yuv420p10le(tv, bt709, progressive), 1920x1080 [SAR 1:1 DAR 16:9], 23.98 fps, 23.98 tbr, 1k tbn (default)
      Metadata:
        HANDLER_NAME    : VideoHandler
        VENDOR_ID       : [0][0][0][0]
        ENCODER         : Lavc61.19.100 libx265
        BPS             : 1300938
        DURATION        : 00:24:02.190708333
        NUMBER_OF_FRAMES: 34578
        NUMBER_OF_BYTES : 234524981
        _STATISTICS_WRITING_APP: mkvpropedit v66.0.0 ('Josie') 64-bit
        _STATISTICS_WRITING_DATE_UTC: 2025-04-12 11:02:39
        _STATISTICS_TAGS: BPS DURATION NUMBER_OF_FRAMES NUMBER_OF_BYTES
  Stream #0:1(eng): Audio: aac (LC), 48000 Hz, stereo, fltp (default)
      Metadata:
        HANDLER_NAME    : SoundHandler
        VENDOR_ID       : [0][0][0][0]
        ENCODER         : Lavc61.19.100 aac
        BPS             : 194776
        DURATION        : 00:24:02.221000000
        NUMBER_OF_FRAMES: 67605
        NUMBER_OF_BYTES : 35113909
        _STATISTICS_WRITING_APP: mkvpropedit v66.0.0 ('Josie') 64-bit
        _STATISTICS_WRITING_DATE_UTC: 2025-04-12 11:02:39
        _STATISTICS_TAGS: BPS DURATION NUMBER_OF_FRAMES NUMBER_OF_BYTES
Input #1, mov,mp4,m4a,3gp,3g2,mj2, from 'G:\Аниме\Онгоинги\!_37_Зима_2025\JamClub\Поднятие уровня в одиночку\ТВ-2\JamClub_Ore_dake_Level_Up_na_Ken_Season_2_01_1080p.mp4':
  Metadata:
    major_brand     : isom
    minor_version   : 512
    compatible_brands: isomiso2avc1mp41
    encoder         : Lavf60.16.100
  Duration: 00:24:02.24, start: 0.000000, bitrate: 4879 kb/s
  Stream #1:0[0x1](und): Video: h264 (High) (avc1 / 0x31637661), yuv420p(progressive), 1920x1080 [SAR 1:1 DAR 16:9], 4681 kb/s, 23.98 fps, 23.98 tbr, 90k tbn (default)
      Metadata:
        handler_name    : VideoHandler
        vendor_id       : [0][0][0][0]
  Stream #1:1[0x2](eng): Audio: aac (LC) (mp4a / 0x6134706D), 48000 Hz, stereo, fltp, 191 kb/s (default)
      Metadata:
        handler_name    : SoundHandler
        vendor_id       : [0][0][0][0]
Stream mapping:
  Stream #0:0 (hevc) -> settb:default
  Stream #1:0 (h264) -> settb:default
  psnr:default -> Stream #0:0 (wrapped_avframe)
  Stream #0:1 -> #0:1 (aac (native) -> pcm_s16le (native))
Output #0, null, to 'pipe:':
  Metadata:
    COMPATIBLE_BRANDS: isomiso2avc1mp41
    MAJOR_BRAND     : isom
    MINOR_VERSION   : 512
    encoder         : Lavf61.7.100
  Stream #0:0: Video: wrapped_avframe, yuv420p10le(tv, bt709, progressive), 1920x1080 [SAR 1:1 DAR 16:9], q=2-31, 200 kb/s, 1000k tbn
      Metadata:
        encoder         : Lavc61.19.100 wrapped_avframe
  Stream #0:1(eng): Audio: pcm_s16le, 48000 Hz, stereo, s16, 1536 kb/s (default)
      Metadata:
        HANDLER_NAME    : SoundHandler
        VENDOR_ID       : [0][0][0][0]
        _STATISTICS_TAGS: BPS DURATION NUMBER_OF_FRAMES NUMBER_OF_BYTES
        BPS             : 194776
        DURATION        : 00:24:02.221000000
        NUMBER_OF_FRAMES: 67605
        NUMBER_OF_BYTES : 35113909
        _STATISTICS_WRITING_APP: mkvpropedit v66.0.0 ('Josie') 64-bit
        _STATISTICS_WRITING_DATE_UTC: 2025-04-12 11:02:39
        encoder         : Lavc61.19.100 pcm_s16le
frame=  111 fps=0.0 q=-0.0 size=N/A time=00:00:04.58 bitrate=N/A speed=8.88x    frame=  271 fps=261 q=-0.0 size=N/A time=00:00:11.26 bitrate=N/A speed=10.9x    frame=  463 fps=299 q=-0.0 size=N/A time=00:00:19.26 bitrate=N/A speed=12.4x    frame=  723 fps=349 q=-0.0 size=N/A time=00:00:30.15 bitrate=N/A speed=14.5x    frame=  995 fps=385 q=-0.0 size=N/A time=00:00:41.45 bitrate=N/A speed=16.1x    frame= 1254 fps=405 q=-0.0 size=N/A time=00:00:52.26 bitrate=N/A speed=16.9x    frame= 1480 fps=409 q=-0.0 size=N/A time=00:01:01.68 bitrate=N/A speed=  17x    frame= 1686 fps=409 q=-0.0 size=N/A time=00:01:10.27 bitrate=N/A speed=17.1x    frame= 1919 fps=413 q=-0.0 size=N/A time=00:01:19.99 bitrate=N/A speed=17.2x    frame= 2132 fps=414 q=-0.0 size=N/A time=00:01:28.88 bitrate=N/A speed=17.2x    frame= 2369 fps=417 q=-0.0 size=N/A time=00:01:38.76 bitrate=N/A speed=17.4x    frame= 2569 fps=415 q=-0.0 size=N/A time=00:01:47.10 bitrate=N/A speed=17.3x    frame= 2745 fps=409 q=-0.0 size=N/A time=00:01:54.44 bitrate=N/A speed=17.1x    frame= 2937 fps=406 q=-0.0 size=N/A time=00:02:02.45 bitrate=N/A speed=16.9x    frame= 3152 fps=406 q=-0.0 size=N/A time=00:02:11.42 bitrate=N/A speed=16.9x    frame= 3357 fps=406 q=-0.0 size=N/A time=00:02:19.97 bitrate=N/A speed=16.9x    frame= 3559 fps=405 q=-0.0 size=N/A time=00:02:28.39 bitrate=N/A speed=16.9x    frame= 3723 fps=400 q=-0.0 size=N/A time=00:02:35.23 bitrate=N/A speed=16.7x    frame= 3881 fps=396 q=-0.0 size=N/A time=00:02:41.82 bitrate=N/A speed=16.5x    frame= 4102 fps=397 q=-0.0 size=N/A time=00:02:51.04 bitrate=N/A speed=16.5x    frame= 4255 fps=392 q=-0.0 size=N/A time=00:02:57.46 bitrate=N/A speed=16.4x    frame= 4438 fps=391 q=-0.0 size=N/A time=00:03:05.05 bitrate=N/A speed=16.3x    frame= 4591 fps=386 q=-0.0 size=N/A time=00:03:11.44 bitrate=N/A speed=16.1x    frame= 4787 fps=386 q=-0.0 size=N/A time=00:03:19.61 bitrate=N/A speed=16.1x    frame= 5057 fps=391 q=-0.0 size=N/A time=00:03:30.87 bitrate=N/A speed=16.3x    frame= 5287 fps=393 q=-0.0 size=N/A time=00:03:40.47 bitrate=N/A speed=16.4x    frame= 5555 fps=398 q=-0.0 size=N/A time=00:03:51.64 bitrate=N/A speed=16.6x    frame= 5823 fps=402 q=-0.0 size=N/A time=00:04:02.82 bitrate=N/A speed=16.8x    frame= 6075 fps=405 q=-0.0 size=N/A time=00:04:13.33 bitrate=N/A speed=16.9x    frame= 6332 fps=408 q=-0.0 size=N/A time=00:04:24.05 bitrate=N/A speed=  17x    frame= 6606 fps=412 q=-0.0 size=N/A time=00:04:35.48 bitrate=N/A speed=17.2x    frame= 6865 fps=415 q=-0.0 size=N/A time=00:04:46.28 bitrate=N/A speed=17.3x    frame= 7124 fps=418 q=-0.0 size=N/A time=00:04:57.08 bitrate=N/A speed=17.4x    frame= 7406 fps=421 q=-0.0 size=N/A time=00:05:08.85 bitrate=N/A speed=17.6x    frame= 7691 fps=425 q=-0.0 size=N/A time=00:05:20.73 bitrate=N/A speed=17.7x    frame= 7946 fps=427 q=-0.0 size=N/A time=00:05:31.37 bitrate=N/A speed=17.8x    frame= 8216 fps=429 q=-0.0 size=N/A time=00:05:42.63 bitrate=N/A speed=17.9x    frame= 8486 fps=432 q=-0.0 size=N/A time=00:05:53.89 bitrate=N/A speed=  18x    frame= 8754 fps=434 q=-0.0 size=N/A time=00:06:05.07 bitrate=N/A speed=18.1x    frame= 9015 fps=436 q=-0.0 size=N/A time=00:06:15.95 bitrate=N/A speed=18.2x    frame= 9278 fps=437 q=-0.0 size=N/A time=00:06:26.92 bitrate=N/A speed=18.2x    frame= 9524 fps=439 q=-0.0 size=N/A time=00:06:37.18 bitrate=N/A speed=18.3x    frame= 9804 fps=441 q=-0.0 size=N/A time=00:06:48.86 bitrate=N/A speed=18.4x    frame=10064 fps=442 q=-0.0 size=N/A time=00:06:59.71 bitrate=N/A speed=18.4x    frame=10332 fps=444 q=-0.0 size=N/A time=00:07:10.88 bitrate=N/A speed=18.5x    frame=10603 fps=446 q=-0.0 size=N/A time=00:07:22.19 bitrate=N/A speed=18.6x    frame=10849 fps=447 q=-0.0 size=N/A time=00:07:32.45 bitrate=N/A speed=18.6x    frame=11117 fps=448 q=-0.0 size=N/A time=00:07:43.62 bitrate=N/A speed=18.7x    frame=11388 fps=450 q=-0.0 size=N/A time=00:07:54.93 bitrate=N/A speed=18.8x    frame=11655 fps=451 q=-0.0 size=N/A time=00:08:06.06 bitrate=N/A speed=18.8x    frame=11895 fps=451 q=-0.0 size=N/A time=00:08:16.07 bitrate=N/A speed=18.8x    frame=12157 fps=452 q=-0.0 size=N/A time=00:08:27.00 bitrate=N/A speed=18.9x    frame=12399 fps=453 q=-0.0 size=N/A time=00:08:37.09 bitrate=N/A speed=18.9x    frame=12629 fps=452 q=-0.0 size=N/A time=00:08:46.69 bitrate=N/A speed=18.9x    frame=12854 fps=452 q=-0.0 size=N/A time=00:08:56.07 bitrate=N/A speed=18.9x    frame=13096 fps=452 q=-0.0 size=N/A time=00:09:06.17 bitrate=N/A speed=18.9x    frame=13308 fps=452 q=-0.0 size=N/A time=00:09:15.01 bitrate=N/A speed=18.8x    frame=13500 fps=451 q=-0.0 size=N/A time=00:09:23.02 bitrate=N/A speed=18.8x    frame=13688 fps=449 q=-0.0 size=N/A time=00:09:30.86 bitrate=N/A speed=18.7x    frame=13914 fps=449 q=-0.0 size=N/A time=00:09:40.28 bitrate=N/A speed=18.7x    frame=14101 fps=447 q=-0.0 size=N/A time=00:09:48.08 bitrate=N/A speed=18.7x    frame=14263 fps=445 q=-0.0 size=N/A time=00:09:54.84 bitrate=N/A speed=18.6x    frame=14490 fps=445 q=-0.0 size=N/A time=00:10:04.31 bitrate=N/A speed=18.6x    frame=14708 fps=445 q=-0.0 size=N/A time=00:10:13.40 bitrate=N/A speed=18.6x    frame=14936 fps=445 q=-0.0 size=N/A time=00:10:22.91 bitrate=N/A speed=18.5x    frame=15137 fps=444 q=-0.0 size=N/A time=00:10:31.29 bitrate=N/A speed=18.5x    frame=15387 fps=444 q=-0.0 size=N/A time=00:10:41.72 bitrate=N/A speed=18.5x    frame=15642 fps=445 q=-0.0 size=N/A time=00:10:52.36 bitrate=N/A speed=18.6x    frame=15881 fps=446 q=-0.0 size=N/A time=00:11:02.32 bitrate=N/A speed=18.6x    frame=16140 fps=446 q=-0.0 size=N/A time=00:11:13.13 bitrate=N/A speed=18.6x    frame=16366 fps=446 q=-0.0 size=N/A time=00:11:22.55 bitrate=N/A speed=18.6x    frame=16599 fps=446 q=-0.0 size=N/A time=00:11:32.27 bitrate=N/A speed=18.6x    frame=16855 fps=447 q=-0.0 size=N/A time=00:11:42.95 bitrate=N/A speed=18.6x    frame=17129 fps=448 q=-0.0 size=N/A time=00:11:54.38 bitrate=N/A speed=18.7x    frame=17382 fps=449 q=-0.0 size=N/A time=00:12:04.93 bitrate=N/A speed=18.7x    frame=17651 fps=450 q=-0.0 size=N/A time=00:12:16.15 bitrate=N/A speed=18.8x    frame=17898 fps=450 q=-0.0 size=N/A time=00:12:26.45 bitrate=N/A speed=18.8x    frame=18172 fps=451 q=-0.0 size=N/A time=00:12:37.88 bitrate=N/A speed=18.8x    frame=18436 fps=452 q=-0.0 size=N/A time=00:12:48.89 bitrate=N/A speed=18.8x    frame=18661 fps=452 q=-0.0 size=N/A time=00:12:58.27 bitrate=N/A speed=18.8x    frame=18880 fps=451 q=-0.0 size=N/A time=00:13:07.41 bitrate=N/A speed=18.8x    frame=19064 fps=450 q=-0.0 size=N/A time=00:13:15.08 bitrate=N/A speed=18.8x    frame=19308 fps=450 q=-0.0 size=N/A time=00:13:25.26 bitrate=N/A speed=18.8x    frame=19546 fps=451 q=-0.0 size=N/A time=00:13:35.18 bitrate=N/A speed=18.8x    frame=19796 fps=451 q=-0.0 size=N/A time=00:13:45.61 bitrate=N/A speed=18.8x    frame=20025 fps=451 q=-0.0 size=N/A time=00:13:55.16 bitrate=N/A speed=18.8x    frame=20233 fps=450 q=-0.0 size=N/A time=00:14:03.84 bitrate=N/A speed=18.8x    frame=20442 fps=450 q=-0.0 size=N/A time=00:14:12.56 bitrate=N/A speed=18.8x    frame=20657 fps=449 q=-0.0 size=N/A time=00:14:21.52 bitrate=N/A speed=18.7x    frame=20865 fps=449 q=-0.0 size=N/A time=00:14:30.20 bitrate=N/A speed=18.7x    frame=21118 fps=449 q=-0.0 size=N/A time=00:14:40.75 bitrate=N/A speed=18.7x    frame=21368 fps=450 q=-0.0 size=N/A time=00:14:51.18 bitrate=N/A speed=18.8x    frame=21609 fps=450 q=-0.0 size=N/A time=00:15:01.23 bitrate=N/A speed=18.8x    frame=21848 fps=450 q=-0.0 size=N/A time=00:15:11.20 bitrate=N/A speed=18.8x    frame=22065 fps=450 q=-0.0 size=N/A time=00:15:20.25 bitrate=N/A speed=18.8x    frame=22289 fps=450 q=-0.0 size=N/A time=00:15:29.59 bitrate=N/A speed=18.8x    frame=22529 fps=450 q=-0.0 size=N/A time=00:15:39.60 bitrate=N/A speed=18.8x    frame=22752 fps=450 q=-0.0 size=N/A time=00:15:48.90 bitrate=N/A speed=18.8x    frame=22959 fps=449 q=-0.0 size=N/A time=00:15:57.53 bitrate=N/A speed=18.7x    frame=23171 fps=449 q=-0.0 size=N/A time=00:16:06.38 bitrate=N/A speed=18.7x    frame=23396 fps=449 q=-0.0 size=N/A time=00:16:15.76 bitrate=N/A speed=18.7x    frame=23628 fps=449 q=-0.0 size=N/A time=00:16:25.44 bitrate=N/A speed=18.7x    frame=23907 fps=450 q=-0.0 size=N/A time=00:16:37.07 bitrate=N/A speed=18.7x    frame=24140 fps=450 q=-0.0 size=N/A time=00:16:46.79 bitrate=N/A speed=18.8x    frame=24396 fps=450 q=-0.0 size=N/A time=00:16:57.47 bitrate=N/A speed=18.8x    frame=24650 fps=450 q=-0.0 size=N/A time=00:17:08.06 bitrate=N/A speed=18.8x    frame=24904 fps=451 q=-0.0 size=N/A time=00:17:18.66 bitrate=N/A speed=18.8x    frame=25157 fps=451 q=-0.0 size=N/A time=00:17:29.21 bitrate=N/A speed=18.8x    frame=25419 fps=452 q=-0.0 size=N/A time=00:17:40.14 bitrate=N/A speed=18.8x    frame=25640 fps=452 q=-0.0 size=N/A time=00:17:49.35 bitrate=N/A speed=18.8x    frame=25843 fps=451 q=-0.0 size=N/A time=00:17:57.82 bitrate=N/A speed=18.8x    frame=26065 fps=451 q=-0.0 size=N/A time=00:18:07.08 bitrate=N/A speed=18.8x    frame=26309 fps=451 q=-0.0 size=N/A time=00:18:17.26 bitrate=N/A speed=18.8x    frame=26569 fps=451 q=-0.0 size=N/A time=00:18:28.10 bitrate=N/A speed=18.8x    frame=26770 fps=451 q=-0.0 size=N/A time=00:18:36.49 bitrate=N/A speed=18.8x    frame=26949 fps=450 q=-0.0 size=N/A time=00:18:43.95 bitrate=N/A speed=18.8x    frame=27133 fps=449 q=-0.0 size=N/A time=00:18:51.63 bitrate=N/A speed=18.7x    frame=27327 fps=449 q=-0.0 size=N/A time=00:18:59.72 bitrate=N/A speed=18.7x    frame=27512 fps=448 q=-0.0 size=N/A time=00:19:07.43 bitrate=N/A speed=18.7x    frame=27712 fps=447 q=-0.0 size=N/A time=00:19:15.77 bitrate=N/A speed=18.7x    frame=27906 fps=447 q=-0.0 size=N/A time=00:19:23.87 bitrate=N/A speed=18.6x    frame=28112 fps=446 q=-0.0 size=N/A time=00:19:32.46 bitrate=N/A speed=18.6x    frame=28297 fps=446 q=-0.0 size=N/A time=00:19:40.17 bitrate=N/A speed=18.6x    frame=28480 fps=445 q=-0.0 size=N/A time=00:19:47.81 bitrate=N/A speed=18.6x    frame=28667 fps=444 q=-0.0 size=N/A time=00:19:55.61 bitrate=N/A speed=18.5x    frame=28863 fps=444 q=-0.0 size=N/A time=00:20:03.78 bitrate=N/A speed=18.5x    frame=29049 fps=443 q=-0.0 size=N/A time=00:20:11.54 bitrate=N/A speed=18.5x    frame=29279 fps=443 q=-0.0 size=N/A time=00:20:21.13 bitrate=N/A speed=18.5x    frame=29481 fps=443 q=-0.0 size=N/A time=00:20:29.56 bitrate=N/A speed=18.5x    frame=29680 fps=442 q=-0.0 size=N/A time=00:20:37.86 bitrate=N/A speed=18.5x    frame=29903 fps=442 q=-0.0 size=N/A time=00:20:47.16 bitrate=N/A speed=18.4x    frame=30110 fps=442 q=-0.0 size=N/A time=00:20:55.79 bitrate=N/A speed=18.4x    frame=30311 fps=442 q=-0.0 size=N/A time=00:21:04.17 bitrate=N/A speed=18.4x    frame=30537 fps=442 q=-0.0 size=N/A time=00:21:13.60 bitrate=N/A speed=18.4x    frame=30736 fps=441 q=-0.0 size=N/A time=00:21:21.90 bitrate=N/A speed=18.4x    frame=30956 fps=441 q=-0.0 size=N/A time=00:21:31.08 bitrate=N/A speed=18.4x    frame=31183 fps=441 q=-0.0 size=N/A time=00:21:40.54 bitrate=N/A speed=18.4x    frame=31409 fps=441 q=-0.0 size=N/A time=00:21:49.97 bitrate=N/A speed=18.4x    frame=31635 fps=441 q=-0.0 size=N/A time=00:21:59.40 bitrate=N/A speed=18.4x    frame=31840 fps=441 q=-0.0 size=N/A time=00:22:07.95 bitrate=N/A speed=18.4x    frame=32044 fps=440 q=-0.0 size=N/A time=00:22:16.46 bitrate=N/A speed=18.4x    frame=32248 fps=440 q=-0.0 size=N/A time=00:22:24.96 bitrate=N/A speed=18.4x    frame=32458 fps=440 q=-0.0 size=N/A time=00:22:33.72 bitrate=N/A speed=18.3x    frame=32669 fps=440 q=-0.0 size=N/A time=00:22:42.52 bitrate=N/A speed=18.3x    frame=32896 fps=440 q=-0.0 size=N/A time=00:22:51.99 bitrate=N/A speed=18.3x    frame=33114 fps=439 q=-0.0 size=N/A time=00:23:01.08 bitrate=N/A speed=18.3x    frame=33342 fps=440 q=-0.0 size=N/A time=00:23:10.59 bitrate=N/A speed=18.3x    frame=33525 fps=439 q=-0.0 size=N/A time=00:23:18.23 bitrate=N/A speed=18.3x    frame=33701 fps=438 q=-0.0 size=N/A time=00:23:25.57 bitrate=N/A speed=18.3x    frame=33881 fps=438 q=-0.0 size=N/A time=00:23:33.07 bitrate=N/A speed=18.3x    frame=34087 fps=437 q=-0.0 size=N/A time=00:23:41.67 bitrate=N/A speed=18.2x    frame=34301 fps=437 q=-0.0 size=N/A time=00:23:50.59 bitrate=N/A speed=18.2x    frame=34506 fps=437 q=-0.0 size=N/A time=00:23:59.14 bitrate=N/A speed=18.2x    [Parsed_psnr_4 @ 000002173c031800] PSNR y:24.416597 u:38.239735 v:35.997221 average:26.058679 min:4.008445 max:inf
[out#0/null @ 00000217396eb7c0] video:14858KiB audio:270420KiB subtitle:0KiB other streams:0KiB global headers:0KiB muxing overhead: unknown
frame=34578 fps=436 q=-0.0 Lsize=N/A time=00:24:02.14 bitrate=N/A speed=18.2x    
